<svg xmlns="http://www.w3.org/2000/svg" viewBox="0 0 400 400" role="img" aria-label="VPN & Privacy">
  <defs>
    <linearGradient id="bgVP" x1="0" y1="0" x2="1" y2="1">
      <stop offset="0%" stop-color="#0f172a"/>
      <stop offset="100%" stop-color="#7c3aed"/>
    </linearGradient>
    <linearGradient id="globe" x1="0" y1="0" x2="1" y2="1">
      <stop offset="0%" stop-color="#38bdf8"/>
      <stop offset="100%" stop-color="#22c55e"/>
    </linearGradient>
  </defs>
  <rect width="400" height="400" rx="44" fill="url(#bgVP)"/>
  <circle cx="78" cy="90" r="42" fill="#a78bfa" opacity="0.12"/>
  <circle cx="322" cy="300" r="72" fill="#22c55e" opacity="0.10"/>
  <circle cx="200" cy="188" r="82" fill="url(#globe)"/>
  <path d="M200 106c-26 18-42 48-42 82s16 64 42 82c26-18 42-48 42-82s-16-64-42-82Z" fill="none" stroke="#f8fafc" stroke-width="8" opacity="0.9"/>
  <path d="M118 188h164" stroke="#f8fafc" stroke-width="8" opacity="0.9"/>
  <path d="M130 152c22 14 44 20 70 20s48-6 70-20" stroke="#f8fafc" stroke-width="8" fill="none" opacity="0.7"/>
  <path d="M130 224c22-14 44-20 70-20s48 6 70 20" stroke="#f8fafc" stroke-width="8" fill="none" opacity="0.7"/>
  <path d="M200 230c-30 0-54 24-54 54h108c0-30-24-54-54-54Z" fill="#f8fafc" opacity="0.92"/>
  <rect x="168" y="248" width="64" height="42" rx="18" fill="#0f172a" opacity="0.92"/>
  <circle cx="200" cy="269" r="9" fill="#f8fafc"/>
  <text x="200" y="332" text-anchor="middle" font-family="Arial, Helvetica, sans-serif" font-size="28" font-weight="700" fill="#f8fafc">VPN & Privacy</text>
</svg>
