<svg xmlns="http://www.w3.org/2000/svg" viewBox="0 0 400 400" role="img" aria-label="Gaming">
  <defs>
    <linearGradient id="bg" x1="0" y1="0" x2="1" y2="1">
      <stop offset="0%" stop-color="#0f172a"/>
      <stop offset="100%" stop-color="#0ea5e9"/>
    </linearGradient>
    <linearGradient id="pad" x1="0" y1="0" x2="1" y2="1">
      <stop offset="0%" stop-color="#e2e8f0"/>
      <stop offset="100%" stop-color="#94a3b8"/>
    </linearGradient>
  </defs>
  <rect width="400" height="400" rx="44" fill="url(#bg)"/>
  <circle cx="80" cy="84" r="46" fill="#22d3ee" opacity="0.14"/>
  <circle cx="316" cy="320" r="70" fill="#a78bfa" opacity="0.12"/>
  <path d="M108 216c0-37 30-67 67-67h50c37 0 67 30 67 67 0 42-36 73-78 69l-18-2-18 2c-42 4-78-27-78-69Z" fill="url(#pad)"/>
  <rect x="141" y="188" width="26" height="10" rx="5" fill="#0f172a"/>
  <rect x="166" y="171" width="10" height="44" rx="5" fill="#0f172a"/>
  <circle cx="246" cy="198" r="11" fill="#0f172a"/>
  <circle cx="267" cy="181" r="5" fill="#0f172a"/>
  <circle cx="280" cy="194" r="5" fill="#0f172a"/>
  <circle cx="267" cy="207" r="5" fill="#0f172a"/>
  <circle cx="316" cy="122" r="14" fill="#facc15"/>
  <text x="200" y="352" text-anchor="middle" font-family="Arial, Helvetica, sans-serif" font-size="30" font-weight="700" fill="#e2e8f0">Gaming</text>
</svg>
